<?xml version="1.0" standalone="no"?>
<!DOCTYPE svg PUBLIC "-//W3C//DTD SVG 20010904//EN"
 "http://www.w3.org/TR/2001/REC-SVG-20010904/DTD/svg10.dtd">
<svg version="1.0" xmlns="http://www.w3.org/2000/svg"
 width="500.000000pt" height="500.000000pt" viewBox="0 0 500.000000 500.000000"
 preserveAspectRatio="xMidYMid meet">

<g transform="translate(0.000000,500.000000) scale(0.100000,-0.100000)"
fill="#000000" stroke="none">
<path d="M0 2500 l0 -2500 2495 0 2495 0 0 2500 0 2500 -2495 0 -2495 0 0
-2500z m1618 870 c222 -28 370 -127 433 -290 33 -84 38 -256 11 -347 -37 -119
-126 -220 -243 -275 -26 -13 -48 -25 -49 -28 0 -3 86 -161 191 -350 105 -190
193 -351 196 -357 4 -10 -23 -13 -114 -13 l-120 0 -182 340 -182 340 -195 0
-194 0 0 -340 0 -340 -110 0 -110 0 0 835 0 835 293 0 c161 0 329 -5 375 -10z
m1002 -830 l0 -830 -105 0 -105 0 0 830 0 830 105 0 105 0 0 -830z m1560 745
l0 -85 -270 0 -270 0 0 -745 0 -745 -105 0 -105 0 0 745 0 745 -265 0 -265 0
0 85 0 85 640 0 640 0 0 -85z"/>
<path d="M1170 2880 l0 -322 218 4 c250 6 299 18 380 92 66 60 92 122 92 222
0 106 -21 164 -79 224 -79 81 -125 93 -388 98 l-223 4 0 -322z"/>
</g>
</svg>
